HIERARCHY
ROOT Hips
{
  OFFSET 36.5326 12.0525 38.6313
  CHANNELS 6 Xposition Yposition Zposition Zrotation Xrotation Yrotation
  JOINT ToSpine
  {
    OFFSET -0.0105055 1.38907 -7.13956
    CHANNELS 3 Zrotation Xrotation Yrotation
    JOINT Spine
    {
      OFFSET 0.0105055 10 1
      CHANNELS 3 Zrotation Xrotation Yrotation
      JOINT Spine1
      {
        OFFSET 0 12 1.60637
        CHANNELS 3 Zrotation Xrotation Yrotation
        JOINT Neck
        {
          OFFSET 0 27 2.26658
          CHANNELS 3 Zrotation Xrotation Yrotation
          JOINT Head
          {
            OFFSET 0 9 2.12705
            CHANNELS 3 Zrotation Xrotation Yrotation
            End Site
            {
              OFFSET 0 11 2
            }
          }
        }
        JOINT LeftShoulder
        {
          OFFSET 8 19.6109 2.86452
          CHANNELS 3 Zrotation Xrotation Yrotation
          JOINT LeftArm
          {
            OFFSET 12 1 0.681055
            CHANNELS 3 Zrotation Xrotation Yrotation
            JOINT LeftForeArm
            {
              OFFSET 19 0 -1.52608
              CHANNELS 3 Zrotation Xrotation Yrotation
              JOINT LeftHand
              {
                OFFSET 23 0 0
                CHANNELS 3 Zrotation Xrotation Yrotation
                End Site
                {
                  OFFSET 10 0 0
                }
              }
            }
          }
        }
        JOINT RightShoulder
        {
          OFFSET -8 19.6109 2.86452
          CHANNELS 3 Zrotation Xrotation Yrotation
          JOINT RightArm
          {
            OFFSET -12 1 0.681055
            CHANNELS 3 Zrotation Xrotation Yrotation
            JOINT RightForeArm
            {
              OFFSET -19 0 -1.52608
              CHANNELS 3 Zrotation Xrotation Yrotation
              JOINT RightHand
              {
                OFFSET -23 0 0
                CHANNELS 3 Zrotation Xrotation Yrotation
                End Site
                {
                  OFFSET -10 0 0
                }
              }
            }
          }
        }
      }
    }
  }
  JOINT LeftUpLeg
  {
    OFFSET 9 -7.17245 0
    CHANNELS 3 Zrotation Xrotation Yrotation
    JOINT LeftLeg
    {
      OFFSET 0 -44.1113 0
      CHANNELS 3 Zrotation Xrotation Yrotation
      JOINT LeftFoot
      {
        OFFSET 0 -36.1829 0
        CHANNELS 3 Zrotation Xrotation Yrotation
        JOINT LeftToeBase
        {
          OFFSET 0 -4.84184 13
          CHANNELS 3 Zrotation Xrotation Yrotation
          End Site
          {
            OFFSET 0 1 6
          }
        }
      }
    }
  }
  JOINT RightUpLeg
  {
    OFFSET -9 -7.17245 0
    CHANNELS 3 Zrotation Xrotation Yrotation
    JOINT RightLeg
    {
      OFFSET 0 -44.0551 0
      CHANNELS 3 Zrotation Xrotation Yrotation
      JOINT RightFoot
      {
        OFFSET 0 -36.1469 0
        CHANNELS 3 Zrotation Xrotation Yrotation
        JOINT RightToeBase
        {
          OFFSET 0 -4.92256 13
          CHANNELS 3 Zrotation Xrotation Yrotation
          End Site
          {
            OFFSET 0 1 6
          }
        }
      }
    }
  }
}
MOTION
Frames:	12
Frame Time:	0.0333333
39.7778 54.0024 17.2076 8.65195 39.2428 -8.86066 0 0 0 5.44186 49.3394 -1.8455 -5.5379 10.4421 2.92899 13.8003 -6.82635 -1.59259 -9.33244 -4.16946 3.55603 8.03115 0.236747 -13.7828 -3.32912 -13.3075 -73.7164 -3.3369 7.62837 2.58623 9.6737 -0.654914 -7.71987 -5.51859 0.647273 14.298 -4.46276 -8.0727 47.8907 0.140894 10.974 6.01221 -15.2893 -0.678821 5.05241 70.5217 -61.8617 83.7215 179.989 43.7372 151.067 35.5329 -47.1351 15.9117 2.02879 -22.1845 -11.6828 -67.4631 -61.9784 -77.3257 179.975 45.4902 -176.449 -41.4939 -52.075 -20.965 11.266 -39.4475 -0.247546 
40.41 52.4597 14.8238 7.29534 36.5756 -8.92383 0 0 0 6.02977 50.7473 -2.11487 -5.46661 8.02689 2.86384 13.587 -0.441025 -1.55754 -8.91143 -8.61309 3.63583 5.82269 0.686566 -14.4048 -1.85765 -12.6268 -72.3858 -3.76525 6.62588 2.76906 9.71824 -0.722961 -8.49925 -2.59878 1.4258 19.1297 -8.73011 -6.69261 44.2565 0.856433 10.4856 4.91342 -14.7214 -0.693222 5.35993 69.8221 -60.6199 83.0311 179.995 40.9481 151.592 38.2728 -50.3715 18.5374 1.9978 -21.8771 -10.4685 -69.228 -60.96 -79.37 -179.982 42.5543 -173.655 -41.7511 -53.148 -21.6018 10.7411 -36.0097 2.33288 
40.756 51.0993 12.1889 5.81193 33.8366 -8.56861 0 0 0 4.68821 54.8597 -1.78169 -1.55416 -1.87734 1.54715 3.54903 23.3279 0.356363 -2.37457 -25.1113 2.33253 -7.11994 3.17925 -18.0907 8.84859 -7.11327 -64.5914 -5.84275 4.82473 1.00274 8.69889 -0.636871 -8.37391 -2.02391 2.3377 30.5868 -10.5553 -0.177149 38.5062 2.8265 10.7599 2.34931 -14.2276 -0.669168 5.36219 71.4568 -58.9934 84.7538 -179.993 38.4588 151.579 41.6092 -51.8517 20.9291 1.94631 -21.0122 -9.36716 -69.6058 -59.7555 -80.128 179.98 40.8568 -170.615 -43.3672 -54.0334 -22.919 10.5924 -34.1499 4.54246 
40.9698 49.8346 9.42849 5.53187 31.3363 -8.53074 0 0 0 4.38357 56.5455 -2.08408 -0.669368 -5.20894 0.994249 -1.00773 29.085 2.72978 0.912467 -29.6206 2.51382 -12.2767 4.20432 -17.958 11.9605 -7.18921 -64.4245 -7.8145 5.82773 3.36591 9.25984 -0.59203 -7.29025 -1.01336 3.02519 35.034 -13.5466 2.68806 37.1132 4.58231 7.70289 0.524948 -13.1574 -0.656171 5.68185 73.3524 -57.923 87.0154 179.998 36.8482 149.795 44.3232 -51.9005 22.4221 2.11785 -18.0062 -10.5772 -71.3043 -58.2656 -81.6774 -179.991 38.9777 -164.415 -44.6216 -55.9319 -24.5846 8.65852 -28.5064 5.03225 
41.0557 48.6133 6.69134 5.68665 28.9602 -8.29401 0 0 0 3.98103 57.576 -2.12856 -0.120683 -6.16192 0.593651 -3.50665 28.2534 3.82023 2.71641 -30.2576 2.38268 -13.7632 4.48883 -17.9105 11.7311 -9.33434 -65.5061 -8.77343 8.18474 4.71395 8.6631 -0.653204 -8.62936 -1.45009 3.05581 37.1138 -15.1239 3.71621 36.9249 5.6423 6.6933 -1.623 -12.0666 -0.581231 5.49299 74.4473 -56.8686 89.4777 -179.998 35.724 147.782 46.1136 -51.8871 23.3991 2.08657 -14.1806 -10.1322 -73.6527 -56.8363 -84.5697 -179.994 37.3266 -161.9 -47.6574 -57.2918 -27.1273 7.91434 -26.2482 5.35991 
40.9879 47.4056 3.9628 4.88076 26.4551 -7.74265 0 0 0 4.31309 58.3802 -2.13492 -0.0259818 -5.27822 0.750229 -3.32992 22.6039 3.51106 2.55872 -27.1266 2.15713 -12.4137 4.27669 -18.1741 9.3559 -12.4377 -67.0316 -8.55799 11.0379 4.63721 5.55778 -0.415077 -8.36724 -1.33535 2.83323 35.3686 -17.8633 2.42253 40.3916 6.64453 5.96339 -3.11629 -11.1926 -0.5234 5.34384 76.9187 -55.1759 91.5079 179.999 34.6105 145.158 47.9571 -52.8019 24.9006 3.05123 -7.35418 -14.3748 -73.6976 -56.1383 -86.5302 -179.991 35.9093 -161.518 -50.7061 -58.1291 -29.5083 7.39451 -24.408 6.40745 
41.0096 46.323 1.31431 4.49392 23.2711 -5.89105 0 0 0 7.18815 59.4598 -4.53148 -0.473903 -3.36862 0.142284 -1.069 13.4444 2.36682 0.369305 -21.2769 2.02223 -8.90131 3.61048 -18.3336 6.8804 -14.8455 -68.9039 -8.1347 14.4169 4.70697 1.91793 -0.120608 -7.29017 2.81244 4.0051 31.0717 -25.5948 0.506248 46.9263 8.25119 4.94401 -4.47909 -10.0358 -0.487374 5.54203 77.0289 -55.3811 92.5327 179.999 34.023 144.062 49.7775 -52.256 25.6409 3.17063 -3.86874 -14.1362 -74.0384 -53.4484 -87.6915 179.97 34.5889 -159.702 -53.6453 -58.6158 -31.6904 5.67432 -19.3549 7.53871 
41.5057 45.5011 -1.15442 5.63348 18.8243 -1.1063 0 0 0 15.7733 60.9988 -12.6755 -1.15172 -1.04722 -2.72236 2.19823 2.41949 1.74077 -2.15277 -14.0293 2.68651 -4.37318 2.71324 -18.2648 4.6626 -16.5446 -69.8817 -7.29262 15.6703 4.7438 3.46874 -0.182119 -6.43355 -16.6592 -2.01851 27.7142 -2.53455 -6.11789 45.5883 4.33755 8.23832 -3.36523 -8.70454 -0.389507 5.10968 71.7909 -59.8322 90.1816 -179.999 34.3585 143.957 49.6377 -52.3133 25.5904 3.36473 3.00794 -13.486 -76.1329 -45.5877 -87.2146 -179.973 32.8287 -154.4 -55.287 -58.0223 -32.393 4.2597 -15.3997 7.32516 
41.0416 44.4098 -3.42101 4.26366 17.5559 -2.38056 0 0 0 13.1595 60.3906 -9.67421 -1.76796 2.06817 -1.16752 5.83766 -8.30018 1.48659 -4.51365 -7.36856 3.50729 0.486107 1.73081 -17.8179 1.22876 -18.5071 -71.7105 -6.10871 17.704 4.80496 5.16571 -0.145186 -2.99054 -14.6965 -1.13592 21.7909 -6.26628 -8.70468 50.9051 4.44888 7.63094 -2.42125 -7.83029 -0.30512 4.47272 77.2798 -56.2445 95.2866 -179.998 33.5936 141.768 51.7872 -51.1385 26.1527 3.26509 6.22813 -12.7205 -75.6746 -49.2886 -90.5036 179.995 32.1564 -158.356 -57.2347 -57.9529 -33.6192 4.07661 -14.9158 5.202 
40.5862 43.4919 -5.42252 2.46116 17.0199 -4.33148 0 0 0 9.3724 59.1293 -5.10898 -2.19743 5.11135 1.19125 8.87475 -16.6967 1.70209 -6.81455 -3.06277 4.30026 3.85308 1.07489 -17.5296 -4.68184 -20.9452 -73.784 -3.66293 17.2326 4.94788 3.29967 -0.0345348 -1.28784 -10.8072 -0.245117 20.7899 -13.2767 -8.84147 48.475 3.29547 6.00671 1.65087 -6.46273 -0.248381 4.36716 83.3899 -51.9545 100.245 179.996 32.9854 140.172 53.6836 -50.341 26.7556 4.39861 9.17833 -15.8847 -75.8363 -54.1663 -94.2838 179.999 32.1942 -160.621 -55.2395 -59.2873 -33.1661 2.85853 -11.269 6.17611 
40.4071 43.0064 -7.24085 2.48338 15.5893 -3.92768 0 0 0 9.07122 58.9067 -4.76353 -2.46398 6.89437 1.47862 11.6753 -21.5143 2.18269 -8.64393 -1.62975 5.09895 6.16893 0.678956 -18.3411 -11.4449 -22.5981 -75.1743 -1.01683 16.3226 3.73476 2.8041 -0.0104466 -0.417936 -9.67538 -0.00071131 19.5534 -13.9466 -9.50652 46.4554 0.44554 8.10687 7.81555 -5.75111 -0.166383 3.33719 85.3142 -51.6893 103.087 -179.997 33.5804 139.712 52.2545 -49.0358 25.2185 4.09137 12.6748 -14.3946 -77.467 -54.5448 -97.2671 -180 32.3345 -162.45 -54.9409 -58.6589 -32.5619 2.52638 -10.2323 6.06314 
40.3812 42.7654 -8.75344 2.8071 13.9019 -2.96214 0 0 0 9.93864 59.6358 -5.9285 -2.5103 6.8831 0.931303 13.0523 -22.577 2.59274 -9.1424 -3.15093 5.49296 4.86841 0.973921 -19.4979 -12.5973 -22.2659 -73.6395 1.8056 17.348 -3.13037 1.79582 0.00281425 0.0852554 -10.8715 -0.225112 17.6953 -10.9389 -9.51375 46.6932 -2.49271 10.2922 14.399 -6.37426 -0.160086 2.86531 85.6536 -52.5541 104.931 179.999 34.2119 141.822 51.4214 -47.4731 23.9118 2.90352 11.3484 -10.9649 -78.3498 -53.2616 -98.6797 179.999 32.5586 -163.041 -55.9132 -56.9131 -32.0993 3.05126 -11.7044 4.05051 
